# xmcd
#
# Track frame offsets:
#	151
#	15996
#	33651
#	45004
#	60181
#	72812
#	88209
#	99112
#	118341
#	130596
#
# Disc length: 1880 seconds
#
# Revision: 1
# Processed by: cddbd v1.5.2PL0 Copyright (c) Steve Scherf et al.
# Submitted via: audiograbber 1.83.01
#
DISCID=6f07560a
DTITLE=Taylor McKay - Lighter Shade Of Blue 
DYEAR=1999
DGENRE=Country
TTITLE0=Lighter Shade Of Blue
TTITLE1=That Girl Is Me´
TTITLE2=Rocking My Baby
TTITLE3=One Last Kiss
TTITLE4=Don´t Lift Me Up
TTITLE5=Achy Breack Heartburn
TTITLE6=After All These Years
TTITLE7=Thank You For It All
TTITLE8=I Never Saw The Face Of Jesus
TTITLE9=Getting Over You
EXTD=
EXTT0=
EXTT1=
EXTT2=
EXTT3=
EXTT4=
EXTT5=
EXTT6=
EXTT7=
EXTT8=
EXTT9=
PLAYORDER=
